<svg width="47" height="113" viewBox="0 0 47 113" fill="none" xmlns="http://www.w3.org/2000/svg">
<path d="M22.262 1.7732C18.6052 13.6836 6.19483 53.6027 0 68.2187C0 68.2187 14.938 78.0248 14.938 103.38L23.3083 109.454L31.6786 103.38C31.6786 78.0248 46.6166 68.2187 46.6166 68.2187C40.4011 53.582 27.97 13.6836 24.3442 1.7732C24.2766 1.54958 24.1388 1.35369 23.9513 1.21445C23.7639 1.07521 23.5366 1 23.3031 1C23.0697 1 22.8424 1.07521 22.6549 1.21445C22.4674 1.35369 22.3296 1.54958 22.262 1.7732Z" fill="#D6D6D6"/>
<path d="M23.3083 65.8758C26.6095 65.8758 29.2856 63.198 29.2856 59.8947C29.2856 56.5914 26.6095 53.9136 23.3083 53.9136C20.0072 53.9136 17.3311 56.5914 17.3311 59.8947C17.3311 63.198 20.0072 65.8758 23.3083 65.8758Z" fill="#4D4C52"/>
<path d="M23.3083 59.8948V1.90796" stroke="#4D4C52" stroke-width="1.88" stroke-linecap="round" stroke-linejoin="round"/>
<path d="M31.5025 99.1919H15.1142C11.4583 99.1919 8.49463 102.157 8.49463 105.816V105.826C8.49463 109.484 11.4583 112.45 15.1142 112.45H31.5025C35.1584 112.45 38.1221 109.484 38.1221 105.826V105.816C38.1221 102.157 35.1584 99.1919 31.5025 99.1919Z" fill="#51A8BC"/>
</svg>
