<svg width="126" height="127" viewBox="0 0 126 127" fill="none" xmlns="http://www.w3.org/2000/svg">
<path d="M126 72.0017V63.0017H99V108.002H108V90.0017H121.5V81.0017H108V72.0017H126ZM76.5 108.002H58.5V63.0017H76.5C80.0793 63.0053 83.511 64.4287 86.042 66.9597C88.573 69.4907 89.9964 72.9224 90 76.5017V94.5017C89.9964 98.081 88.573 101.513 86.042 104.044C83.511 106.575 80.0793 107.998 76.5 108.002ZM67.5 99.0017H76.5C77.6931 99.0005 78.837 98.526 79.6807 97.6824C80.5243 96.8387 80.9988 95.6948 81 94.5017V76.5017C80.9988 75.3086 80.5243 74.1647 79.6807 73.321C78.837 72.4774 77.6931 72.0029 76.5 72.0017H67.5V99.0017ZM40.5 63.0017H18V108.002H27V94.5017H40.5C42.8859 94.4981 45.173 93.5488 46.86 91.8617C48.5471 90.1747 49.4964 87.8876 49.5 85.5017V72.0017C49.4976 69.6155 48.5486 67.3277 46.8613 65.6404C45.174 63.9531 42.8862 63.0041 40.5 63.0017V63.0017ZM27 85.5017V72.0017H40.5L40.5045 85.5017H27Z" fill="#A5A39C"/>
<path d="M90 54.0015V36.0015C90.0159 35.4101 89.9034 34.8223 89.6704 34.2785C89.4373 33.7347 89.0892 33.2479 88.65 32.8515L57.15 1.35153C56.7538 0.91208 56.267 0.563807 55.7232 0.330737C55.1794 0.097667 54.5914 -0.0146512 54 0.00153018H9C6.61524 0.00865245 4.33019 0.959151 2.64391 2.64544C0.957621 4.33172 0.00712227 6.61677 0 9.00153V117.002C0 119.388 0.948211 121.678 2.63604 123.365C4.32387 125.053 6.61305 126.002 9 126.002H81V117.002H9V9.00153H45V36.0015C45.0071 38.3863 45.9576 40.6713 47.6439 42.3576C49.3302 44.0439 51.6152 44.9944 54 45.0015H81V54.0015H90ZM54 36.0015V10.8015L79.2 36.0015H54Z" fill="#A5A39C"/>
</svg>
